<svg width="120" height="120" viewBox="0 0 120 120" fill="none" xmlns="http://www.w3.org/2000/svg">
<rect width="120" height="120" rx="17" fill="#0384C6"/>
<path d="M88.2706 105.456C88.0786 105.456 87.8226 105.424 87.5026 105.36C87.1826 105.296 86.6706 105.136 85.9666 104.88C85.3266 104.688 84.3986 104.336 83.1826 103.824C81.9666 103.376 80.3666 102.736 78.3826 101.904C76.3986 101.072 73.9346 100.016 70.9906 98.736C68.0466 97.52 64.5266 96.016 60.4306 94.224C56.3346 92.432 51.5346 90.32 46.0306 87.888H74.0626V88.752L90.4786 94.224C91.3106 94.48 91.8226 94.768 92.0146 95.088C92.2706 95.408 92.3986 95.824 92.3986 96.336C92.3986 96.912 92.2706 97.68 92.0146 98.64C91.8226 99.664 91.5346 100.688 91.1506 101.712C90.7666 102.8 90.3186 103.696 89.8066 104.4C89.3586 105.104 88.8466 105.456 88.2706 105.456ZM60.5266 90.768C50.6706 90.768 43.0546 87.824 37.6786 81.936C32.3666 75.984 29.7106 67.472 29.7106 56.4C29.7106 45.328 32.3666 36.848 37.6786 30.96C43.0546 25.008 50.6706 22.032 60.5266 22.032C70.4466 22.032 78.0306 25.008 83.2786 30.96C88.5906 36.848 91.2466 45.328 91.2466 56.4C91.2466 67.472 88.5906 75.984 83.2786 81.936C78.0306 87.824 70.4466 90.768 60.5266 90.768ZM60.5266 78.192C65.6466 78.192 69.5186 76.368 72.1426 72.72C74.7666 69.008 76.0786 63.568 76.0786 56.4C76.0786 49.168 74.7666 43.728 72.1426 40.08C69.5186 36.432 65.6466 34.608 60.5266 34.608C55.4066 34.608 51.5026 36.432 48.8146 40.08C46.1906 43.728 44.8786 49.168 44.8786 56.4C44.8786 63.568 46.1906 69.008 48.8146 72.72C51.5026 76.368 55.4066 78.192 60.5266 78.192Z" fill="white"/>
</svg>
